HIERARCHY
ROOT Hips
{
	OFFSET 0.000000 0.000000 0.000000
	CHANNELS 6 Xposition Yposition Zposition Zrotation Yrotation Xrotation 
	JOINT LHipJoint
	{
		OFFSET 0.000000 0.000000 0.000000
		CHANNELS 3 Zrotation Yrotation Xrotation
		JOINT LeftUpLeg
		{
			OFFSET 1.363060 -1.794630 0.839290
			CHANNELS 3 Zrotation Yrotation Xrotation
			JOINT LeftLeg
			{
				OFFSET 2.448110 -6.726130 0.000000
				CHANNELS 3 Zrotation Yrotation Xrotation
				JOINT LeftFoot
				{
					OFFSET 2.562200 -7.039590 0.000000
					CHANNELS 3 Zrotation Yrotation Xrotation
					JOINT LeftToeBase
					{
						OFFSET 0.157640 -0.433110 2.322550
						CHANNELS 3 Zrotation Yrotation Xrotation
						End Site
						{
							OFFSET 0.000000 0.000000 0.000000
						}
					}
				}
			}
		}
	}
	JOINT RHipJoint
	{
		OFFSET 0.000000 0.000000 0.000000
		CHANNELS 3 Zrotation Yrotation Xrotation
		JOINT RightUpLeg
		{
			OFFSET -1.305520 -1.794630 0.839290
			CHANNELS 3 Zrotation Yrotation Xrotation
			JOINT RightLeg
			{
				OFFSET -2.542530 -6.985550 0.000000
				CHANNELS 3 Zrotation Yrotation Xrotation
				JOINT RightFoot
				{
					OFFSET -2.568260 -7.056230 0.000000
					CHANNELS 3 Zrotation Yrotation Xrotation
					JOINT RightToeBase
					{
						OFFSET -0.164730 -0.452590 2.363150
						CHANNELS 3 Zrotation Yrotation Xrotation
						End Site
						{
							OFFSET 0.000000 0.000000 0.000000
						}
					}
				}
			}
		}
	}
}
MOTION
Frames: 11
Frame Time: 0.008333
5.325551 16.880951 4.623933 4.684320 26.792449 13.163341 -11.511936 5.989881 -0.842633 -6.717348 23.240017 -1.704259 -1.583747 1.454875 23.901887 0.784252 4.794705 11.179529 1.286801 0.000000 -81.822300 7.724883 -1.088118 5.531048 18.456787 3.944712 -24.854605 2.567976 3.462939 -6.720080 -3.984016 -17.385820 -8.199772 178.228800 -0.000001 -3.379400
5.393528 16.899191 4.753550 4.271345 26.234092 12.789349 -11.699499 5.992704 -0.837317 -5.941084 23.337474 -2.168737 -1.398260 1.589540 25.619463 0.821514 4.192719 13.195177 1.170500 0.000000 -82.821700 7.604964 -1.183632 5.446679 19.032511 3.803456 -23.880256 2.710306 3.469127 -7.017613 -3.888316 -16.690069 -7.454801 178.220300 -0.000000 -4.411801
5.457716 16.916794 4.882109 3.885546 25.680872 12.431871 -11.863330 5.979679 -0.831536 -5.212796 23.384824 -2.705410 -1.218905 1.716158 27.449023 0.873398 3.506245 15.227836 0.978200 -0.000000 -82.927700 7.486627 -1.277698 5.333703 19.594897 3.657873 -23.251082 2.849558 3.390914 -6.529638 -3.710409 -15.883969 -7.273757 178.289200 0.000000 -5.511800
5.517868 16.933306 5.009493 3.542128 25.138587 12.107911 -12.000163 5.948976 -0.826740 -4.558585 23.375454 -3.320601 -1.050466 1.833057 29.379792 0.940912 2.816144 17.181919 0.733799 0.000000 -81.985900 7.384212 -1.361605 5.208880 20.108225 3.493420 -22.726515 2.977484 3.290585 -5.815670 -3.527654 -15.043793 -7.344144 178.417100 0.000000 -6.648101
5.574131 16.948426 5.135310 3.240223 24.608912 11.817963 -12.110358 5.899372 -0.827860 -3.979734 23.320894 -4.012240 -0.896388 1.940848 31.400079 1.022038 2.216254 18.955516 0.480300 -0.000000 -79.966199 7.299531 -1.432508 5.080971 20.563748 3.321392 -22.223297 3.089236 3.189950 -5.068680 -3.365805 -14.234122 -7.553117 178.580300 -0.000000 -7.779000
5.626561 16.961955 5.259445 2.980664 24.092158 11.566793 -12.193325 5.831641 -0.837339 -3.483048 23.229509 -4.783807 -0.758242 2.041809 33.495368 1.113448 1.819485 20.450813 0.281299 -0.000000 -76.950100 7.232273 -1.490117 4.957844 20.955916 3.160743 -21.731360 3.181339 3.095010 -4.338201 -3.231396 -13.503978 -7.863011 178.757500 -0.000000 -8.859200
5.675460 16.973874 5.381683 2.756593 23.586698 11.349772 -12.251772 5.746555 -0.858983 -3.060024 23.115576 -5.629566 -0.634752 2.139287 35.644124 1.212411 1.733056 21.596912 0.205100 -0.000000 -73.198000 7.179294 -1.535063 4.843600 21.291815 3.024272 -21.233433 3.253412 3.010841 -3.669569 -3.127136 -12.886438 -8.232690 178.932500 0.000000 -9.854000
5.720929 16.984318 5.502162 2.567993 23.090634 11.171619 -12.286510 5.646226 -0.892163 -2.715854 22.981159 -6.551548 -0.523211 2.236392 37.824446 1.317552 2.047383 22.342974 0.311600 -0.000000 -68.959000 7.139968 -1.567976 4.744299 21.570882 2.924344 -20.727656 3.305479 2.941233 -3.096350 -3.053149 -12.398602 -8.626082 179.094700 0.000000 -10.737900
5.763123 16.993507 5.620964 2.411301 22.599916 11.030413 -12.300006 5.532266 -0.935784 -2.446939 22.826657 -7.542157 -0.420157 2.335118 40.007387 1.429927 2.813472 22.670777 0.633800 -0.000000 -64.535800 7.112636 -1.590021 4.661355 21.799676 2.863767 -20.209884 3.339761 2.887737 -2.637427 -3.005752 -12.037604 -9.012820 179.238599 0.000000 -11.502200
5.802245 17.001781 5.738172 2.282774 22.110071 10.923019 -12.294656 5.405977 -0.986739 -2.249778 22.645392 -8.588358 -0.322581 2.435563 42.156854 1.553099 4.040526 22.595174 1.172200 -0.000000 -60.306100 7.096235 -1.602394 4.593912 21.984164 2.840286 -19.679439 3.359323 2.850015 -2.297970 -2.978857 -11.785834 -9.370100 179.362500 0.000000 -12.152600
5.838374 17.009468 5.853996 2.182281 21.616294 10.848016 -12.271876 5.269221 -1.040772 -2.123337 22.427323 -9.676838 -0.229290 2.536814 44.239618 1.690177 5.685358 22.136954 1.890500 0.000000 -56.414000 7.091193 -1.606194 4.540088 22.126219 2.848562 -19.140772 3.367086 2.825954 -2.069162 -2.965140 -11.615457 -9.684608 179.467100 0.000000 -12.704600
